<svg width="247" height="39" viewBox="0 0 247 39" fill="none" xmlns="http://www.w3.org/2000/svg">
<mask id="mask0_101_84" style="mask-type:luminance" maskUnits="userSpaceOnUse" x="0" y="0" width="34" height="39">
<path d="M0 0.116463H33.1681V38.3101H0V0.116463Z" fill="white"/>
</mask>
<g mask="url(#mask0_101_84)">
<mask id="mask1_101_84" style="mask-type:luminance" maskUnits="userSpaceOnUse" x="0" y="0" width="34" height="39">
<path fill-rule="evenodd" clip-rule="evenodd" d="M4.13031 16.8734V12.0494L16.5841 4.88289L29.0378 12.0494V16.8027L33.1681 14.4261V9.6728L24.8761 4.90121L16.5841 0.132248L8.29203 4.90121L0 9.6728V19.25L8.26062 24.0032L16.5841 28.7932L18.6492 27.6048L20.6699 26.4401L24.9075 24.0032V19.25L20.7772 21.6266L16.5841 24.0399L12.3909 21.6266L4.13031 16.8734ZM29.0378 21.5533V26.3799L16.5841 33.5438L4.13031 26.3799V21.6266L0 24.0032V28.7565L8.29203 33.5255L16.5841 38.2971L24.8761 33.5255L33.1681 28.7565V19.1793L24.9075 14.4261L16.5841 9.63615L14.5189 10.8245L12.4982 11.9866L8.26062 14.4261V19.1793L12.3909 16.8027L16.5841 14.3894L20.7772 16.8027L24.9075 19.1793L29.0378 21.5533Z" fill="white"/>
</mask>
<g mask="url(#mask1_101_84)">
<path d="M0 0.132248V38.2971H33.1681V0.132248H0Z" fill="url(#paint0_linear_101_84)"/>
</g>
</g>
<path d="M50.2498 28.6702C48.8102 28.6702 47.4151 28.4922 46.0619 28.1362C44.7061 27.7802 43.6067 27.3065 42.7639 26.7123L44.4181 23.006C45.2138 23.5295 46.1352 23.9536 47.1821 24.2729C48.2291 24.5948 49.2604 24.7545 50.2812 24.7545C52.2076 24.7545 53.1708 24.2729 53.1708 23.3097C53.1708 22.8071 52.8934 22.4354 52.3437 22.1894C51.7993 21.9381 50.9146 21.6764 49.6949 21.4042C48.3548 21.1189 47.2345 20.8126 46.3341 20.4828C45.4389 20.1557 44.672 19.6296 44.0308 18.9019C43.3869 18.169 43.0675 17.1849 43.0675 15.9494C43.0675 14.8684 43.3633 13.8921 43.9575 13.0179C44.549 12.1463 45.4337 11.4579 46.6063 10.9554C47.7842 10.4476 49.229 10.1911 50.9408 10.1911C52.1055 10.1911 53.2546 10.3246 54.3853 10.5889C55.5213 10.8481 56.5238 11.2276 57.3901 11.7301L55.8406 15.4678C54.1445 14.5543 52.5008 14.0963 50.9094 14.0963C49.9095 14.0963 49.1819 14.2481 48.7212 14.5465C48.2658 14.8396 48.0407 15.2244 48.0407 15.6982C48.0407 16.1745 48.3129 16.5305 48.8573 16.7661C49.4017 17.0043 50.2733 17.2477 51.4747 17.499C52.8279 17.7869 53.9482 18.0957 54.8355 18.4308C55.7202 18.7606 56.4897 19.2841 57.1389 20.0012C57.7932 20.721 58.123 21.6973 58.123 22.9328C58.123 24.0007 57.8246 24.9691 57.2331 25.8329C56.6389 26.6914 55.749 27.3798 54.5633 27.8954C53.3828 28.411 51.9459 28.6702 50.2498 28.6702Z" fill="#2B70E4"/>
<path d="M79.0488 24.4299V28.3142H64.7786V10.5366H78.7138V14.4313H69.7517V17.4257H77.6459V21.1843H69.7517V24.4299H79.0488Z" fill="#2B70E4"/>
<path d="M93.9507 23.5923H91.2076V28.3142H86.1821V10.5366H94.3066C95.9111 10.5366 97.3062 10.8062 98.4945 11.3427C99.6802 11.8741 100.594 12.6357 101.238 13.6251C101.879 14.6171 102.201 15.7819 102.201 17.122C102.201 18.4072 101.9 19.5275 101.3 20.4828C100.698 21.4408 99.8399 22.1868 98.7249 22.7233L102.557 28.3142H97.1754L93.9507 23.5923ZM97.123 17.122C97.123 16.2923 96.8613 15.651 96.3378 15.1956C95.8143 14.7349 95.0343 14.5046 94.003 14.5046H91.2076V19.7081H94.003C95.0343 19.7081 95.8143 19.4856 96.3378 19.038C96.8613 18.5852 97.123 17.9465 97.123 17.122Z" fill="#2B70E4"/>
<path d="M117.081 23.5923H114.338V28.3142H109.312V10.5366H117.437C119.041 10.5366 120.436 10.8062 121.625 11.3427C122.81 11.8741 123.724 12.6357 124.368 13.6251C125.009 14.6171 125.331 15.7819 125.331 17.122C125.331 18.4072 125.03 19.5275 124.43 20.4828C123.828 21.4408 122.97 22.1868 121.855 22.7233L125.687 28.3142H120.305L117.081 23.5923ZM120.253 17.122C120.253 16.2923 119.991 15.651 119.468 15.1956C118.944 14.7349 118.164 14.5046 117.133 14.5046H114.338V19.7081H117.133C118.164 19.7081 118.944 19.4856 119.468 19.038C119.991 18.5852 120.253 17.9465 120.253 17.122Z" fill="#2B70E4"/>
<path d="M144.346 24.8592H136.829L135.436 28.3142H130.306L138.148 10.5366H143.1L150.973 28.3142H145.739L144.346 24.8592ZM142.87 21.1529L140.587 15.4678L138.305 21.1529H142.87Z" fill="#2B70E4"/>
<path d="M161.765 14.4313V18.3365H169.607V22.2208H161.765V28.3142H156.74V10.5366H170.675V14.4313H161.765Z" fill="#2B70E4"/>
<path d="M186.344 28.6702C184.465 28.6702 182.776 28.2723 181.277 27.4766C179.774 26.6809 178.596 25.5816 177.738 24.1787C176.884 22.7705 176.46 21.1843 176.46 19.4254C176.46 17.6665 176.884 16.0855 177.738 14.6826C178.596 13.2744 179.774 12.1751 181.277 11.3846C182.776 10.5889 184.465 10.1911 186.344 10.1911C188.221 10.1911 189.906 10.5889 191.401 11.3846C192.901 12.1751 194.076 13.2744 194.929 14.6826C195.788 16.0855 196.217 17.6665 196.217 19.4254C196.217 21.1843 195.788 22.7705 194.929 24.1787C194.076 25.5816 192.901 26.6809 191.401 27.4766C189.906 28.2723 188.221 28.6702 186.344 28.6702ZM186.344 24.5032C187.236 24.5032 188.045 24.2938 188.773 23.875C189.506 23.451 190.082 22.8542 190.5 22.0847C190.924 21.3099 191.139 20.4253 191.139 19.4254C191.139 18.4282 190.924 17.5461 190.5 16.7765C190.082 16.0018 189.506 15.405 188.773 14.9862C188.045 14.5622 187.236 14.3476 186.344 14.3476C185.443 14.3476 184.629 14.5622 183.904 14.9862C183.177 15.405 182.601 16.0018 182.177 16.7765C181.75 17.5461 181.538 18.4282 181.538 19.4254C181.538 20.4253 181.75 21.3099 182.177 22.0847C182.601 22.8542 183.177 23.451 183.904 23.875C184.629 24.2938 185.443 24.5032 186.344 24.5032Z" fill="#2B70E4"/>
<path d="M210.971 23.5923H208.228V28.3142H203.203V10.5366H211.327C212.932 10.5366 214.327 10.8062 215.515 11.3427C216.701 11.8741 217.614 12.6357 218.258 13.6251C218.9 14.6171 219.222 15.7819 219.222 17.122C219.222 18.4072 218.921 19.5275 218.321 20.4828C217.719 21.4408 216.861 22.1868 215.746 22.7233L219.578 28.3142H214.196L210.971 23.5923ZM214.144 17.122C214.144 16.2923 213.882 15.651 213.359 15.1956C212.835 14.7349 212.055 14.5046 211.024 14.5046H208.228V19.7081H211.024C212.055 19.7081 212.835 19.4856 213.359 19.038C213.882 18.5852 214.144 17.9465 214.144 17.122Z" fill="#2B70E4"/>
<path d="M242.372 28.3142L242.331 18.8914L237.755 26.5657H235.525L230.981 19.1532V28.3142H226.333V10.5366H230.468L236.719 20.7969L242.812 10.5366H246.948L247 28.3142H242.372Z" fill="#2B70E4"/>
<path d="M155.581 38.634C154.869 38.634 154.194 38.5503 153.56 38.3828C152.924 38.21 152.403 37.9901 152 37.7232L152.963 35.9119C153.395 36.1841 153.856 36.3935 154.345 36.5401C154.832 36.6814 155.322 36.7495 155.811 36.7495C156.277 36.7495 156.638 36.684 156.89 36.5505C157.146 36.4197 157.277 36.2338 157.277 35.9957C157.277 35.7941 157.162 35.6371 156.931 35.5245C156.701 35.4067 156.34 35.2811 155.853 35.1476C155.293 35.001 154.83 34.8545 154.461 34.7079C154.097 34.5561 153.783 34.3257 153.518 34.0169C153.251 33.7028 153.121 33.2945 153.121 32.7919C153.121 32.1794 153.288 31.6402 153.623 31.1796C153.958 30.7189 154.432 30.3629 155.047 30.1117C155.667 29.8552 156.398 29.7243 157.235 29.7243C157.842 29.7243 158.41 29.7923 158.942 29.9232C159.47 30.0488 159.928 30.2268 160.313 30.4572L159.434 32.258C159.099 32.0486 158.727 31.8889 158.324 31.7763C157.918 31.6664 157.507 31.6088 157.089 31.6088C156.607 31.6088 156.225 31.69 155.947 31.8496C155.675 32.0041 155.539 32.203 155.539 32.4464C155.539 32.6558 155.657 32.8207 155.895 32.9385C156.131 33.051 156.497 33.1741 156.994 33.3049C157.552 33.4463 158.012 33.5876 158.376 33.7342C158.738 33.8808 159.049 34.1059 159.308 34.4043C159.572 34.7053 159.706 35.1005 159.706 35.5873C159.706 36.1946 159.533 36.7285 159.193 37.1892C158.858 37.6499 158.376 38.0058 157.748 38.2571C157.125 38.5084 156.403 38.634 155.581 38.634Z" fill="#2B70E4"/>
<path d="M165.537 31.8183H162.909L163.296 29.9023H170.971L170.583 31.8183H167.966L166.626 38.4665H164.207L165.537 31.8183Z" fill="#2B70E4"/>
<path d="M181.083 32.6244C181.083 33.4149 180.874 34.0902 180.455 34.6556C180.036 35.2209 179.453 35.6371 178.707 35.9015L180.162 38.4665H177.628L176.351 36.1946H175.126L174.676 38.4665H172.257L173.964 29.9023H177.628C178.722 29.9023 179.57 30.1431 180.172 30.6247C180.78 31.1063 181.083 31.7738 181.083 32.6244ZM178.633 32.8652C178.633 32.5093 178.513 32.2449 178.277 32.0695C178.039 31.8968 177.707 31.8078 177.283 31.8078H176.016L175.492 34.3205H176.937C177.482 34.3205 177.9 34.1949 178.194 33.9436C178.487 33.6871 178.633 33.3259 178.633 32.8652Z" fill="#2B70E4"/>
<path d="M187.12 31.7764L186.837 33.2107H190.648L190.292 35.0325H186.471L186.167 36.5925H190.659L190.271 38.4665H183.403L185.11 29.9023H191.821L191.444 31.7764H187.12Z" fill="#2B70E4"/>
<path d="M199.884 36.8019H196.24L195.246 38.4665H192.691L198.177 29.9023H200.564L202.637 38.4665H200.229L199.884 36.8019ZM199.517 35.0115L198.942 32.237L197.298 35.0115H199.517Z" fill="#2B70E4"/>
<path d="M217.079 29.9023L215.383 38.4665H213.142L214.032 33.9541L211.174 37.6185H210.106L208.556 33.9541L207.645 38.4665H205.426L207.132 29.9023H209.111L211.111 34.8545L215.006 29.9023H217.079Z" fill="#2B70E4"/>
<path d="M220.897 29.9023H223.325L221.608 38.4665H219.19L220.897 29.9023Z" fill="#2B70E4"/>
<path d="M235.282 29.9023L233.565 38.4665H231.576L228.749 33.7656L227.796 38.4665H225.43L227.137 29.9023H229.136L231.974 34.5823L232.905 29.9023H235.282Z" fill="#2B70E4"/>
<path d="M244.011 33.9959H246.157L245.435 37.608C244.995 37.943 244.482 38.1995 243.896 38.3723C243.315 38.545 242.702 38.634 242.053 38.634C241.187 38.634 240.43 38.477 239.781 38.1629C239.132 37.8488 238.629 37.4091 238.273 36.8437C237.923 36.2731 237.75 35.6135 237.75 34.8649C237.75 33.8808 237.975 33.0013 238.431 32.2265C238.891 31.4466 239.532 30.8341 240.357 30.3943C241.179 29.9494 242.126 29.7243 243.194 29.7243C244.89 29.7243 246.136 30.253 246.932 31.3052L245.194 32.6767C244.914 32.3365 244.608 32.0957 244.273 31.9543C243.938 31.8078 243.54 31.7345 243.079 31.7345C242.498 31.7345 241.99 31.8653 241.551 32.1219C241.116 32.381 240.781 32.7343 240.545 33.1793C240.315 33.6269 240.2 34.1373 240.2 34.7079C240.2 35.2942 240.388 35.7627 240.765 36.1108C241.147 36.4616 241.689 36.6343 242.388 36.6343C242.799 36.6343 243.179 36.5663 243.529 36.4249L244.011 33.9959Z" fill="#2B70E4"/>
<defs>
<linearGradient id="paint0_linear_101_84" x1="16.5842" y1="38.2972" x2="16.5842" y2="0.13134" gradientUnits="userSpaceOnUse">
<stop stop-color="#38B6FF"/>
<stop offset="0.0078125" stop-color="#38B6FF"/>
<stop offset="0.015625" stop-color="#38B5FF"/>
<stop offset="0.0234375" stop-color="#38B5FE"/>
<stop offset="0.03125" stop-color="#38B4FE"/>
<stop offset="0.0390625" stop-color="#38B4FE"/>
<stop offset="0.046875" stop-color="#38B3FE"/>
<stop offset="0.0546875" stop-color="#37B3FE"/>
<stop offset="0.0625" stop-color="#37B2FD"/>
<stop offset="0.0703125" stop-color="#37B1FD"/>
<stop offset="0.078125" stop-color="#37B1FD"/>
<stop offset="0.0859375" stop-color="#37B0FD"/>
<stop offset="0.09375" stop-color="#37B0FD"/>
<stop offset="0.101562" stop-color="#37AFFC"/>
<stop offset="0.109375" stop-color="#37AFFC"/>
<stop offset="0.117187" stop-color="#37AEFC"/>
<stop offset="0.125" stop-color="#37AEFC"/>
<stop offset="0.132812" stop-color="#36ADFC"/>
<stop offset="0.140625" stop-color="#36ACFB"/>
<stop offset="0.148437" stop-color="#36ACFB"/>
<stop offset="0.15625" stop-color="#36ABFB"/>
<stop offset="0.164062" stop-color="#36ABFB"/>
<stop offset="0.171875" stop-color="#36AAFA"/>
<stop offset="0.179687" stop-color="#36AAFA"/>
<stop offset="0.1875" stop-color="#36A9FA"/>
<stop offset="0.195312" stop-color="#36A9FA"/>
<stop offset="0.203125" stop-color="#36A8FA"/>
<stop offset="0.210938" stop-color="#35A8F9"/>
<stop offset="0.21875" stop-color="#35A7F9"/>
<stop offset="0.226562" stop-color="#35A6F9"/>
<stop offset="0.234375" stop-color="#35A6F9"/>
<stop offset="0.242187" stop-color="#35A5F9"/>
<stop offset="0.25" stop-color="#35A5F8"/>
<stop offset="0.257812" stop-color="#35A4F8"/>
<stop offset="0.265625" stop-color="#35A4F8"/>
<stop offset="0.273437" stop-color="#35A3F8"/>
<stop offset="0.28125" stop-color="#34A3F8"/>
<stop offset="0.289062" stop-color="#34A2F7"/>
<stop offset="0.296875" stop-color="#34A2F7"/>
<stop offset="0.304687" stop-color="#34A1F7"/>
<stop offset="0.3125" stop-color="#34A0F7"/>
<stop offset="0.320312" stop-color="#34A0F6"/>
<stop offset="0.328125" stop-color="#349FF6"/>
<stop offset="0.335937" stop-color="#349FF6"/>
<stop offset="0.34375" stop-color="#349EF6"/>
<stop offset="0.351562" stop-color="#349EF6"/>
<stop offset="0.359375" stop-color="#339DF5"/>
<stop offset="0.367188" stop-color="#339DF5"/>
<stop offset="0.375" stop-color="#339CF5"/>
<stop offset="0.382812" stop-color="#339BF5"/>
<stop offset="0.390625" stop-color="#339BF5"/>
<stop offset="0.398438" stop-color="#339AF4"/>
<stop offset="0.40625" stop-color="#339AF4"/>
<stop offset="0.414063" stop-color="#3399F4"/>
<stop offset="0.421875" stop-color="#3399F4"/>
<stop offset="0.429688" stop-color="#3398F3"/>
<stop offset="0.4375" stop-color="#3298F3"/>
<stop offset="0.445313" stop-color="#3297F3"/>
<stop offset="0.453125" stop-color="#3297F3"/>
<stop offset="0.460938" stop-color="#3296F3"/>
<stop offset="0.46875" stop-color="#3295F2"/>
<stop offset="0.476563" stop-color="#3295F2"/>
<stop offset="0.484375" stop-color="#3294F2"/>
<stop offset="0.492188" stop-color="#3294F2"/>
<stop offset="0.5" stop-color="#3293F2"/>
<stop offset="0.507812" stop-color="#3293F1"/>
<stop offset="0.515625" stop-color="#3192F1"/>
<stop offset="0.523438" stop-color="#3192F1"/>
<stop offset="0.53125" stop-color="#3191F1"/>
<stop offset="0.539062" stop-color="#3191F1"/>
<stop offset="0.546875" stop-color="#3190F0"/>
<stop offset="0.554688" stop-color="#318FF0"/>
<stop offset="0.5625" stop-color="#318FF0"/>
<stop offset="0.570312" stop-color="#318EF0"/>
<stop offset="0.578125" stop-color="#318EEF"/>
<stop offset="0.585937" stop-color="#318DEF"/>
<stop offset="0.59375" stop-color="#308DEF"/>
<stop offset="0.601562" stop-color="#308CEF"/>
<stop offset="0.609375" stop-color="#308CEF"/>
<stop offset="0.617187" stop-color="#308BEE"/>
<stop offset="0.625" stop-color="#308BEE"/>
<stop offset="0.632812" stop-color="#308AEE"/>
<stop offset="0.640625" stop-color="#3089EE"/>
<stop offset="0.648437" stop-color="#3089EE"/>
<stop offset="0.65625" stop-color="#3088ED"/>
<stop offset="0.664062" stop-color="#3088ED"/>
<stop offset="0.671875" stop-color="#2F87ED"/>
<stop offset="0.679687" stop-color="#2F87ED"/>
<stop offset="0.6875" stop-color="#2F86ED"/>
<stop offset="0.695312" stop-color="#2F86EC"/>
<stop offset="0.703125" stop-color="#2F85EC"/>
<stop offset="0.710938" stop-color="#2F84EC"/>
<stop offset="0.71875" stop-color="#2F84EC"/>
<stop offset="0.726562" stop-color="#2F83EB"/>
<stop offset="0.734375" stop-color="#2F83EB"/>
<stop offset="0.742188" stop-color="#2E82EB"/>
<stop offset="0.75" stop-color="#2E82EB"/>
<stop offset="0.757812" stop-color="#2E81EB"/>
<stop offset="0.765625" stop-color="#2E81EA"/>
<stop offset="0.773438" stop-color="#2E80EA"/>
<stop offset="0.78125" stop-color="#2E80EA"/>
<stop offset="0.789062" stop-color="#2E7FEA"/>
<stop offset="0.796875" stop-color="#2E7EEA"/>
<stop offset="0.804688" stop-color="#2E7EE9"/>
<stop offset="0.8125" stop-color="#2E7DE9"/>
<stop offset="0.820313" stop-color="#2D7DE9"/>
<stop offset="0.828125" stop-color="#2D7CE9"/>
<stop offset="0.835938" stop-color="#2D7CE9"/>
<stop offset="0.84375" stop-color="#2D7BE8"/>
<stop offset="0.851563" stop-color="#2D7BE8"/>
<stop offset="0.859375" stop-color="#2D7AE8"/>
<stop offset="0.867188" stop-color="#2D7AE8"/>
<stop offset="0.875" stop-color="#2D79E7"/>
<stop offset="0.882813" stop-color="#2D78E7"/>
<stop offset="0.890625" stop-color="#2D78E7"/>
<stop offset="0.898438" stop-color="#2C77E7"/>
<stop offset="0.90625" stop-color="#2C77E7"/>
<stop offset="0.914063" stop-color="#2C76E6"/>
<stop offset="0.921875" stop-color="#2C76E6"/>
<stop offset="0.929688" stop-color="#2C75E6"/>
<stop offset="0.9375" stop-color="#2C75E6"/>
<stop offset="0.945312" stop-color="#2C74E6"/>
<stop offset="0.953125" stop-color="#2C74E5"/>
<stop offset="0.960938" stop-color="#2C73E5"/>
<stop offset="0.96875" stop-color="#2C72E5"/>
<stop offset="0.976562" stop-color="#2B72E5"/>
<stop offset="0.984375" stop-color="#2B71E4"/>
<stop offset="0.992188" stop-color="#2B71E4"/>
<stop offset="1" stop-color="#2B70E4"/>
</linearGradient>
</defs>
</svg>
